<svg xmlns="http://www.w3.org/2000/svg" xmlns:xlink="http://www.w3.org/1999/xlink" width="917.84" height="206.00" viewBox="0 0 917.8398 206.0000">
<defs></defs><g transform="translate(28.0,28.0) scale(5.558748953889769)"><g
     id="dag-ml_h_layer1"
     transform="translate(-101.45868,-114.10114)">
    <path fill="#FFFFFF" d="M107.80378530273438 141.0856153125Q105.84489282226563 141.01464094726563 104.84415427246094 139.97841521484375Q103.84341572265626 138.94218948242187 103.84341572265626 136.61423030273437V132.0576760546875Q103.84341572265626 128.46637317382812 101.45867705078125 128.09730647460938V127.08947048828125Q103.84341572265626 126.74879353515625 103.84341572265626 123.38460862304689V118.58674153320312Q103.84341572265626 116.31556184570313 104.80866708984377 115.25094636718751Q105.77391845703126 114.18633088867188 107.80378530273438 114.10116165039062V115.42128484375Q106.45527236328125 115.50645408203125 105.90876975097657 116.30136697265625Q105.36226713867188 117.09627986328125 105.36226713867188 119.01258772460938V123.49816760742188Q105.36226713867188 126.90493713867188 103.11947719726562 127.58629104492188V127.64307053710938Q105.36226713867188 128.35281418945314 105.36226713867188 131.92992219726563V136.15999436523438Q105.36226713867188 138.10469197265627 105.90876975097657 138.9067022998047Q106.45527236328125 139.70871262695314 107.80378530273438 139.76549211914062Z"/>
    <path
       style="fill:#058e96;fill-opacity:1;fill-rule:evenodd;stroke:none;stroke-width:0.264583"
       d="m 112.97632,127.18792 c 0,-1.70313 1.38521,-3.08833 3.08834,-3.08833 1.71448,0 3.08833,1.3852 3.08833,3.08833 0,1.71448 -1.37385,3.08833 -3.08833,3.08833 -1.70313,0 -3.08834,-1.37385 -3.08834,-3.08833 z"
       id="dag-ml_h_path2" />
    <path
       style="fill:#e9362d;fill-opacity:1;fill-rule:evenodd;stroke:none;stroke-width:0.264583"
       d="m 129.68966,127.18792 c 0,-1.70313 1.3852,-3.08833 3.08833,-3.08833 1.71448,0 3.08833,1.3852 3.08833,3.08833 0,1.71448 -1.37385,3.08833 -3.08833,3.08833 -1.70313,0 -3.08833,-1.37385 -3.08833,-3.08833 z"
       id="dag-ml_h_path3" />
    <path
       style="fill:#64a137;fill-opacity:1;fill-rule:evenodd;stroke:none;stroke-width:0.264583"
       d="m 146.22132,127.18792 c 0,-1.70313 1.38521,-3.08833 3.08834,-3.08833 1.71448,0 3.08833,1.3852 3.08833,3.08833 0,1.71448 -1.37385,3.08833 -3.08833,3.08833 -1.70313,0 -3.08834,-1.37385 -3.08834,-3.08833 z"
       id="dag-ml_h_path4" />
    <path fill="#FFFFFF" d="M163.9785834765625 128.09727647460937Q161.5938448046875 128.4663431738281 161.5938448046875 132.0576460546875V136.61420030273436Q161.5938448046875 138.8711851171875 160.6498857470703 139.93580059570314Q159.70592668945312 141.00041607421875 157.64767009765626 141.0855853125V139.7654621191406Q159.01037791015625 139.70868262695313 159.54268564941407 138.88537999023438Q160.07499338867188 138.06207735351563 160.07499338867188 136.15996436523437V131.92989219726562Q160.07499338867188 128.35278418945313 162.31778333007813 127.64304053710937V127.58626104492187Q160.07499338867188 126.87651739257812 160.07499338867188 123.49813760742187V119.01255772460937Q160.07499338867188 117.7492140234375 159.833680546875 116.98269087890625Q159.59236770507812 116.21616773437499 159.10264458496093 115.85419847167968Q158.61292146484374 115.49222920898437 157.64767009765626 115.42125484374999V114.10113165039061Q159.7201215625 114.18630088867187 160.65698318359375 115.26511124023438Q161.5938448046875 116.34392159179687 161.5938448046875 118.58671153320311V123.38457862304688Q161.5938448046875 126.74876353515624 163.9785834765625 127.08944048828124Z"/>
    <path
       style="fill:#FFFFFF;fill-opacity:1;fill-rule:nonzero;stroke:#FFFFFF;stroke-width:0.0113542px;stroke-linecap:butt;stroke-linejoin:round;stroke-miterlimit:4;stroke-dasharray:none;stroke-opacity:1"
       d="m 121.42382,126.82459 h 5.22292 v 0.90833 h -5.22292 z m 4.76875,-0.90834 1.81667,1.3625 -1.81667,1.3625 z"
       id="dag-ml_h_path5" />
    <path
       style="fill:#FFFFFF;fill-opacity:1;fill-rule:nonzero;stroke:#FFFFFF;stroke-width:0.0113542px;stroke-linecap:butt;stroke-linejoin:round;stroke-miterlimit:4;stroke-dasharray:none;stroke-opacity:1"
       d="m 138.13716,126.82459 h 5.22291 v 0.90833 h -5.22291 z m 4.76875,-0.90834 1.81666,1.3625 -1.81666,1.3625 z"
       id="dag-ml_h_path6" />
  </g></g>
<path fill="#FFFFFF" d="M453.7469851969888 146.0H432.0450140481843V132.94200791736577H452.8881463232472Q462.23356125535787 132.94200791736577 468.33573556953013 129.41540748544986Q474.43790988370233 125.88880705353398 477.4254179944144 119.16345526164011Q480.4129261051264 112.43810346974622 480.4129261051264 102.90963569339578Q480.4129261051264 93.41413475907089 477.44158075920046 86.74419363137059Q474.4702354132745 80.0742525036703 468.46928338650986 76.56612229315226Q462.4683313597452 73.05799208263423 453.3776230430459 73.05799208263423H431.62482443776065V60.0H454.3611279848454Q467.1560700137359 60.0 476.45201324215316 65.1992457857068Q485.7479564705704 70.39849157141359 490.7683935214893 80.02933636351719Q495.7888305724083 89.6601811556208 495.7888305724083 102.90995634962249Q495.7888305724083 116.21283475120595 490.7535093226705 125.87023114710045Q485.71818807293266 135.52762754299496 476.32678005918535 140.7638137714975Q466.9353720454381 146.0 453.7469851969888 146.0ZM439.9545666645853 60.0V146.0H424.661772909342V60.0Z M500.692658500785 146.0 531.3987410432557 60.0H550.5700910589856L581.1584193347301 146.0H564.3419010094365L549.3096701867644 100.81798447986577Q547.0425218475762 93.6240816052328 544.5606532214488 85.58169699035236Q542.0787845953215 77.5393123754719 538.9019699259109 66.55440976955747H543.1499728883689Q539.9316028629389 77.5393123754719 537.4289565588019 85.58169699035236Q534.926310254665 93.6240816052328 532.5806661166616 100.81798447986577L517.0913052407703 146.0ZM518.9338181523684 125.46836379902474V112.90903598862207H562.9380373611563V125.46836379902474Z M626.435030007444 147.38523489932885Q614.5081778157494 147.38523489932885 605.4198918140191 141.7934995510434Q596.3316058122888 136.20176420275797 591.2004669863923 126.20844792103608Q586.0693281604956 116.21513163931418 586.0693281604956 103.05771812080536Q586.0693281604956 89.53553622457005 591.2962739940474 79.55260878185297Q596.5232198275992 69.5696813391359 605.6299760507274 64.09222321990352Q614.7367322738555 58.614765100671136 626.2688085833668 58.614765100671136Q633.4904854853697 58.614765100671136 639.8256128972826 60.771113248479445Q646.1607403091953 62.927461396287754 651.1117918343368 66.90654526268875Q656.0628433594784 70.88562912908976 659.278895359793 76.34922137164429Q662.4949473601075 81.81281361419882 663.4045925533228 88.48501992449664H647.8716964884109Q647.0774875368064 84.84182423841233 645.2235641641921 81.86585341075923Q643.3696407915778 78.88988258310611 640.5933759301317 76.74967606307675Q637.8171110686856 74.6094695430474 634.2951255499933 73.45509655843645Q630.773140031301 72.3007235738255 626.6220291095308 72.3007235738255Q618.9362469419553 72.3007235738255 613.276372928349 76.11360715315645Q607.6164989147426 79.92649073248741 604.5308657712601 86.82268943018562Q601.4452326277775 93.71888812788382 601.4452326277775 103.05771812080536Q601.4452326277775 112.33882999292156 604.5412546102649 119.2165584692219Q607.6372765927523 126.09428694552223 613.3283171233732 129.89678168584837Q619.0193576539939 133.6992764261745 626.7466951775887 133.6992764261745Q633.1719085138932 133.6992764261745 638.1761055206308 131.09039200136326Q643.1803025273684 128.48150757655202 646.0673887172018 123.82130126953126Q648.954474907035 119.16109496251049 648.954474907035 112.9967404768771L652.8839008980166 113.27378322934143H628.9377291540987V101.19234201316065H663.9656109965904V111.60695407534605Q663.9656109965904 122.06546065567323 659.0942037143179 130.1367571734742Q654.2227964320455 138.20805369127515 645.7671023025625 142.796644295302Q637.3114081730795 147.38523489932885 626.435030007444 147.38523489932885Z M713.9402737875929 105.62504718959731V117.81037679582634H675.3522858340484V105.62504718959731Z"/>
<path fill="#058E96" d="M727.7396252583353 146.0V60.0H749.713749465288L766.4614456953634 105.21910392197987Q767.2948919778719 107.6478587720218 768.4377065424167 111.18132873125523Q769.5805211069616 114.71479869048868 770.7914426313166 118.572640683987Q772.0023641556718 122.43048267748532 773.0562940823968 125.90854197252517Q774.1102240091218 129.38660126756503 774.7497382512045 131.7045347892198H771.0119685495475Q771.6514827916302 129.38660126756503 772.6869424969574 125.90854197252517Q773.7224022022846 122.43048267748532 774.9229348876348 118.572640683987Q776.1234675729851 114.71479869048868 777.255893298525 111.18132873125523Q778.3883190240651 107.6478587720218 779.1848248637779 105.21910392197987L795.6693230810597 60.0H817.7011654088177V146.0H802.6854144060387V102.1155148909396Q802.6854144060387 99.28271205825294 802.7558288224607 95.5679957857068Q802.8262432388827 91.85327951316066 802.9439869371053 87.71607674208263Q803.0617306353278 83.57887397100461 803.1690854945455 79.35278656210676Q803.2764403537632 75.12669915320889 803.3133807965589 71.27115404781878H805.2134427329054Q803.8536004248098 75.643865352349 802.4475878474713 80.10775818280726Q801.0415752701327 84.57165101326552 799.7383026387884 88.69846494533871Q798.435030007444 92.8252788774119 797.3129931209087 96.26294182899014Q796.1909562343735 99.70060478056837 795.341347187079 102.1155148909396L778.9654156840903 146.0H766.516930339082L750.0047849164729 102.1155148909396Q749.1551758691785 99.70060478056837 747.9938910832357 96.26294182899014Q746.832606297293 92.8252788774119 745.5004746055458 88.69846494533871Q744.1683429137988 84.57165101326552 742.7150010546598 80.10775818280726Q741.2616591955207 75.643865352349 739.807158323824 71.27115404781878H742.1643503133898Q742.2382311989813 75.12669915320889 742.3271158368011 79.35278656210676Q742.416000474621 83.57887397100461 742.5337441728435 87.71607674208263Q742.651487871066 91.85327951316066 742.7219022874881 95.5679957857068Q742.79231670391 99.28271205825294 742.79231670391 102.1155148909396V146.0Z M831.978551432832 146.0V60.0H847.2713451880753V132.7757864932886H887.1338523975971V146.0Z"/>
</svg>
